<svg width="40" height="40" viewBox="0 0 40 40" fill="none" xmlns="http://www.w3.org/2000/svg">
<path d="M18.5096 0.521467C16.8241 1.18497 14.9336 2.44089 13.7037 3.74421L12.747 4.73946L11.221 3.53094C10.3783 2.86743 9.58108 2.3698 9.44442 2.4172C9.33054 2.44089 8.82945 3.17549 8.32837 4.00487C6.57456 7.06173 5.7546 11.3982 6.30124 14.8105C6.64289 16.9669 7.37174 19.1944 8.03227 20.1896L8.55613 20.9953L6.41512 21.1138C4.52465 21.2323 4.06912 21.3508 2.61141 22.1091C1.70034 22.583 0.720945 23.1754 0.424848 23.4361C-0.0762397 23.8863 -0.0990164 23.9811 0.174304 24.5024C0.584285 25.2844 2.4292 27.1801 2.97584 27.3697C3.27194 27.4645 3.63636 27.2749 4.13745 26.7773C4.54743 26.3745 5.52683 25.6636 6.32401 25.2133C7.87283 24.3602 8.03227 24.0996 6.59734 24.7868C5.77737 25.1659 4.4791 26.0901 3.86413 26.6825C3.70469 26.8484 3.43137 26.9906 3.27194 26.9906C2.86196 26.9906 2.40642 26.3982 2.63419 26.1612C2.7253 26.0427 2.63419 26.019 2.4292 26.1138C2.15588 26.2086 1.81423 25.9479 1.35869 25.3555C0.743722 24.5735 0.698168 24.3839 0.925935 23.8863C1.24481 23.2228 3.06695 22.1802 3.63636 22.346C3.90968 22.4171 3.97801 22.3223 3.88691 22.038C3.77302 21.7062 3.81858 21.7299 4.22856 22.0854C4.82075 22.6304 5.43572 22.5356 5.77737 21.801C6.02792 21.2797 6.05069 21.2797 6.30124 21.6825C6.52901 22.1091 6.52901 22.1091 6.57456 21.6588C6.59734 21.3271 6.66567 21.3982 6.77955 21.8958C6.93899 22.5593 6.96176 22.5593 6.98454 22.0143C7.00732 21.5167 7.1212 21.4219 7.73617 21.4456C8.21448 21.4693 8.60169 21.3034 8.85223 20.9953C9.30776 20.4029 9.92273 20.6636 9.48998 21.256C9.26221 21.564 9.28499 21.564 9.64941 21.2323C10.0138 20.8768 10.0366 20.7821 9.74052 20.5925C9.55831 20.474 9.19388 20.4266 8.94334 20.5214C8.53336 20.6399 8.51058 20.6162 8.82945 20.237C9.05722 19.929 9.08 19.8579 8.87501 19.9764C8.67002 20.0949 8.53336 20.0001 8.44225 19.6683C8.37392 19.384 8.21448 19.1707 8.1006 19.1707C7.96394 19.1707 7.91838 18.9574 7.98671 18.6968C8.05504 18.4361 8.03227 18.2702 7.91838 18.3413C7.64506 18.5072 6.80233 15.0001 6.71122 13.2465C6.52901 10.2845 7.05287 7.9385 8.51058 4.95273C9.03444 3.83899 10.1733 3.1044 10.3555 3.69681C10.4238 3.86269 10.606 4.00487 10.7655 4.00487C10.9249 4.00487 11.1071 4.17074 11.1982 4.36032C11.2666 4.54989 11.4715 4.71576 11.6765 4.71576C11.8588 4.71576 12.0182 4.81055 12.0182 4.95273C12.0182 5.07121 12.1776 5.1897 12.3826 5.1897C12.8609 5.1897 14.4097 6.87215 15.3664 8.43613C15.7763 9.12333 16.1863 9.69205 16.2547 9.69205C16.5508 9.69205 14.5009 6.63519 13.6353 5.80581C13.2481 5.40297 12.9293 5.04752 12.9293 4.95273C12.9293 4.88164 13.2481 4.62098 13.6126 4.38401C13.9998 4.17074 14.6831 3.60203 15.1614 3.15179C15.9586 2.3935 16.1863 2.25132 16.4596 2.3935C16.5052 2.44089 16.6874 2.29871 16.8469 2.08544C17.3024 1.46933 19.5801 0.687344 20.0584 0.948006C20.6961 1.32715 21.63 3.62572 22.1766 6.13756C22.2677 6.5878 22.3816 7.13282 22.4271 7.32239C22.6777 8.45983 22.7232 11.9669 22.541 13.4835C22.1538 16.2797 21.9261 17.1802 21.4477 17.7015C21.2655 17.8674 21.0605 18.4361 20.9922 18.9337C20.8783 19.5735 20.7644 19.8105 20.5367 19.7157C20.3545 19.6446 20.2178 19.7157 20.2178 19.8342C20.2178 19.9764 20.4 20.1423 20.6278 20.1896C20.9239 20.2844 20.9011 20.3081 20.5139 20.3318C20.2406 20.3318 19.9673 20.2133 19.9217 20.0475C19.8534 19.9053 19.785 20.3555 19.7623 21.0664C19.7395 22.0143 19.6712 22.2512 19.5345 21.8958C19.3523 21.4456 19.3295 21.4456 19.3295 21.9669C19.3067 22.2512 19.0106 22.9858 18.6462 23.602C18.1451 24.4313 17.9629 24.5972 17.8946 24.2655C17.8263 23.8863 17.7579 23.91 17.3935 24.5024C17.143 24.8816 16.9607 25.3555 16.9607 25.5214C16.9607 25.9716 13.7037 29.3602 13.2709 29.3602C13.0659 29.3602 12.952 29.455 13.0204 29.5735C13.1342 29.7631 12.6104 30.0711 10.7655 30.9242C9.37609 31.564 6.34679 31.4929 4.72965 30.8057C3.13528 30.1185 2.77085 29.8342 3.18083 29.5735C3.4086 29.4076 3.4086 29.3602 3.20361 29.3602C2.83918 29.3602 2.83918 29.0759 3.20361 28.5545C3.47693 28.1754 3.54526 28.1754 4.59299 28.6493C5.20796 28.91 5.82293 29.0996 5.95959 29.0285C6.09625 28.9574 6.07347 28.91 5.89126 28.91C5.73182 28.8863 5.09407 28.6256 4.4791 28.2939L3.36304 27.7252L2.65697 28.7204C1.85978 29.8816 1.85978 29.9052 4.183 31.0427C8.55613 33.2228 13.7264 31.327 17.2113 26.2797C17.5985 25.6873 18.464 24.5735 19.1017 23.7915C20.5139 22.0617 22.1083 18.7442 22.7688 16.2086C23.4749 13.5309 23.4749 8.24656 22.7688 5.63993C22.1083 3.1044 20.6961 -0.0235538 20.2406 0.000143051C20.0356 0.000143051 19.2612 0.237108 18.5096 0.521467ZM5.18518 21.7773C5.29906 21.5877 5.4585 21.5167 5.54961 21.6114C5.80015 21.8721 5.29906 22.2986 4.82075 22.2039C4.61576 22.1802 4.36522 21.9669 4.31966 21.7773C4.20578 21.4693 4.25133 21.4693 4.59299 21.7536C4.93464 22.0617 5.02574 22.0617 5.18518 21.7773Z" fill="#DB8997"/>
<path d="M33.0411 13.4598C27.9392 15.3082 22.7916 20.0238 16.6647 28.4598C14.2959 31.7062 11.9727 34.0996 10.4239 34.8815C9.67223 35.2607 8.46507 35.6161 7.46289 35.7346L5.75464 35.9716L7.91843 35.9005C9.76334 35.8294 10.31 35.7109 11.6538 35.0948C14.8881 33.5545 18.0085 30.5688 21.7439 25.4503C25.0465 20.8769 25.8437 19.8579 27.2103 18.3887L28.5086 16.9906L29.0324 17.6067C29.7385 18.4835 29.7157 19.9053 28.9869 21.4693C28.0075 23.4835 26.4814 24.4787 24.2721 24.5024C22.8144 24.5261 22.245 24.692 22.5638 25.0001C22.6322 25.0948 23.3383 25.1422 24.0899 25.1185C25.8209 25.0948 26.732 25.5451 27.2103 26.6825C27.6203 27.7489 27.4836 29.0285 26.732 30.6872C25.5704 33.2939 23.2699 35.0474 21.015 35.0474C19.1246 35.0474 18.6463 33.9811 20.1723 33.1754C21.3111 32.583 21.6528 32.109 21.4706 31.4929C21.1289 30.3792 19.3068 30.3792 18.1679 31.4929C16.9836 32.6541 17.0291 34.0996 18.2818 34.9526C19.6029 35.8531 23.2472 35.6161 25.5932 34.4787C28.7363 32.9621 30.5813 29.5024 29.4424 27.2512C28.9641 26.2797 27.8708 25.3792 26.7548 25.0712L25.7981 24.7868L26.6637 24.5972C28.0075 24.2655 29.6246 23.3176 30.5357 22.275C32.2212 20.3318 31.834 18.0096 29.5791 16.801L29.0324 16.5167L29.693 15.948C30.0574 15.6399 31.1734 14.9527 32.1756 14.4314C35.1366 12.8911 37.8015 12.7252 39.4186 13.9811C39.8286 14.2892 40.0564 14.3603 39.988 14.1707C39.9197 13.9811 39.5553 13.602 39.1225 13.2939C37.9837 12.512 35.501 12.5593 33.0411 13.4598ZM30.8546 19.8816C30.8773 20.4266 30.809 20.7821 30.6951 20.711C30.5585 20.6399 30.5357 20.7347 30.604 20.9242C30.6724 21.1375 30.5357 21.3745 30.2396 21.5404C29.9891 21.6825 29.8296 21.8958 29.8979 22.0143C29.9663 22.1328 29.9207 22.275 29.8068 22.346C29.488 22.5593 29.2602 22.038 29.5107 21.7062C29.6474 21.5404 29.8068 20.9953 29.8979 20.474C30.194 18.7679 30.809 18.4124 30.8546 19.8816ZM24.6365 20.2607C24.9326 20.3792 24.9326 20.4503 24.6593 20.7347C24.4999 20.9242 24.2493 21.0664 24.1127 21.0664C23.976 21.0664 23.8393 21.3034 23.8393 21.5878C23.8166 22.038 23.771 21.9906 23.6344 21.4219L23.4521 20.711L23.4294 21.5878C23.4294 22.0617 23.3155 22.5119 23.2244 22.583C22.9055 22.7726 23.2244 20.9479 23.5888 20.5214C23.9532 20.0712 24.0899 20.0475 24.6365 20.2607ZM22.8599 22.4171C22.8827 22.7726 22.8372 23.128 22.7461 23.1991C22.6322 23.2702 22.3589 23.6494 22.1311 24.0522C21.4478 25.237 19.8306 27.2275 19.6712 27.0617C19.6029 26.9669 19.5345 27.038 19.5345 27.1802C19.5345 27.346 19.3523 27.6541 19.1473 27.891C18.9196 28.128 18.5324 28.6019 18.3046 28.9337C18.0541 29.2891 17.758 29.5024 17.6441 29.4313C17.5074 29.3602 17.4846 29.3839 17.553 29.5261C17.7807 29.8816 14.6148 32.9147 14.0226 32.9147C13.6354 32.9147 13.8631 32.4882 14.2959 32.3697C14.5464 32.2986 14.8198 32.038 14.9109 31.801C15.1842 31.1375 19.079 25.8057 19.3068 25.8057C19.4207 25.8057 19.5801 25.5925 19.6484 25.3318C19.7395 25.0712 19.899 24.9053 20.0129 24.9764C20.1267 25.0712 20.2178 25.0001 20.2178 24.8579C20.2178 24.5972 20.309 24.4313 21.1972 23.365C21.7439 22.7252 22.2222 22.4645 21.9033 23.0095C21.8122 23.1517 21.835 23.1991 21.9944 23.128C22.1083 23.0332 22.1766 22.7252 22.1083 22.4171C22.0172 21.9906 22.04 21.9669 22.245 22.2513C22.45 22.5356 22.4955 22.5119 22.4955 22.038C22.4955 21.2797 22.7688 21.5641 22.8599 22.4171ZM29.0097 27.8437C29.3741 29.3602 28.3264 31.9669 27.0281 32.7725C26.2081 33.2702 25.7754 33.2702 26.2537 32.7725C27.0509 31.9432 27.9619 29.2655 27.9619 27.7726C27.9619 26.801 27.9847 26.7536 28.4175 26.9906C28.668 27.1328 28.9413 27.5119 29.0097 27.8437ZM20.4456 31.4692C20.4456 31.5877 20.5139 31.8484 20.5823 32.038C20.6506 32.2512 20.5367 32.4645 20.2862 32.5356C20.0584 32.6067 19.489 33.0569 19.0107 33.5308L18.1679 34.3602L17.9402 33.7441C17.5302 32.6304 18.6007 31.3034 19.9445 31.2797C20.2178 31.256 20.4456 31.3508 20.4456 31.4692Z" fill="#DB8997"/>
<path d="M13.1572 39.7867C12.6561 39.9052 13.3166 39.9763 14.9565 40C16.3914 40 17.5075 39.9763 17.4392 39.9052C17.257 39.7156 13.9999 39.6209 13.1572 39.7867Z" fill="#E4D6CD"/>
</svg>
